<?xml version='1.0' encoding='iso-8859-1'?>
<svg version="1.1" xmlns="http://www.w3.org/2000/svg" viewBox="0 0 297 297" xmlns:xlink="http://www.w3.org/1999/xlink" enable-background="new 0 0 297 297">
  <g>
    <path d="m297,103.776h-15.793c-1.744-12.626-7.564-23.947-16.104-32.585l16.23-33.415h-38.275l-18.28-17.138-18.852,17.138h-38.275l16.203,32.645c-5.045,4.914-9.188,10.741-12.172,17.218-5.825-5.34-13.581-8.612-22.098-8.612-8.516,0-16.27,3.271-22.095,8.609-3.07-6.666-7.373-12.642-12.619-17.644l15.647-32.216h-38.276l-18.28-17.138-18.853,17.138h-38.275l16.808,33.864c-8.303,8.58-13.963,19.725-15.677,32.137h-17.964v16h17.975c3.914,28.048 27.818,49.641 56.945,49.641 16.168,0 31.081-6.661 41.081-17.378v25.521c-9,2.126-15.973,10.386-15.973,20.271 0,4.509 1.531,8.671 3.968,12.079-1.415-0.081-2.8-0.132-4.244-0.132-33.098,0-49.521,33.291-49.521,33.291s16.79,33.292 49.552,33.292c25.962,0 47.401-13.423 49.526-30.503 2.125,17.08 23.561,30.503 49.523,30.503 32.763,0 49.543-33.292 49.543-33.292s-16.444-33.291-49.541-33.291c-1.43,0-2.841,0.05-4.241,0.13 2.436-3.408 3.716-7.569 3.716-12.077 0-9.887-6.308-18.146-16.308-20.273v-26.049c11,11.025 25.488,17.907 41.919,17.907 29.126,0 53.363-21.593 57.277-49.641h15.803v-16zm-31.233,7.959c0,22.983-18.698,41.682-41.681,41.682-22.983,0-41.682-18.698-41.682-41.682 0-22.982 18.698-41.681 41.682-41.681 22.982,0.001 41.681,18.699 41.681,41.681zm-190.681,41.682c-22.983,0-41.682-18.698-41.682-41.682 0-22.982 18.698-41.681 41.682-41.681 22.982,0 41.681,18.698 41.681,41.681 0,22.984-18.699,41.682-41.681,41.682zm74.247-42.641c-6.09,0-11.791,1.656-16.688,4.533 0.072-1.183 0.121-2.373 0.121-3.574 0-0.228-0.015-0.451-0.018-0.678 0.393-8.695 7.781-16.152 16.834-16.152 9.074,0 16.478,7.493 16.837,16.215-0.002,0.206-0.016,0.409-0.016,0.615 0,1.308 0.06,2.6 0.145,3.886-5.011-3.072-10.905-4.845-17.215-4.845z"/>
  </g>
</svg>
