<?xml version="1.0" encoding="iso-8859-1"?>
<!-- Generator: Adobe Illustrator 19.0.0, SVG Export Plug-In . SVG Version: 6.00 Build 0)  -->
<svg version="1.1" id="Layer_1" xmlns="http://www.w3.org/2000/svg" xmlns:xlink="http://www.w3.org/1999/xlink" x="0px" y="0px"
	 viewBox="0 0 496 496" style="enable-background:new 0 0 496 496;" xml:space="preserve">
<g>
	<g>
		<g>
			<path d="M240,248v24h-16v16h16v32h96v-32h16v-16h-16v-40c0-48.52-39.48-88-88-88h-64v-32h-24V64h24.168
				c7.512,9.968,19.328,16,31.832,16c22.056,0,40-17.944,40-40c0-22.056-17.944-40-40-40c-12.504,0-24.32,6.032-31.832,16H71.832
				C64.32,6.032,52.504,0,40,0C17.944,0,0,17.944,0,40c0,22.056,17.944,40,40,40c12.504,0,24.32-6.032,31.832-16H96v48H72v32H0v96
				h232C236.416,240,240,243.584,240,248z M320,304h-64v-16h64V304z M62.96,48l-2.312,3.976C56.264,59.504,48.544,64,40,64
				c-13.232,0-24-10.768-24-24s10.768-24,24-24c8.544,0,16.264,4.496,20.648,12.024L62.96,32h130.08l2.312-3.976
				C199.736,20.496,207.456,16,216,16c13.232,0,24,10.768,24,24s-10.768,24-24,24c-8.544,0-16.264-4.496-20.648-12.024L193.04,48
				H144v64h-32V64h16V48h-16h-8H62.96z M16,160h72v-32h8h64h8v32h80c39.704,0,72,32.296,72,72v40h-64v-24c0-13.232-10.768-24-24-24
				H16V160z"/>
			<rect x="64" y="184" width="120" height="16"/>
			<rect x="200" y="184" width="16" height="16"/>
			<path d="M288,336c-35.288,0-64,28.712-64,64c0,35.288,28.712,64,64,64c35.288,0,64-28.712,64-64C352,364.712,323.288,336,288,336
				z M288,448c-26.472,0-48-21.528-48-48s21.528-48,48-48s48,21.528,48,48S314.472,448,288,448z"/>
			<path d="M276,384h24c2.2,0,4,1.8,4,4h16c0-11.032-8.968-20-20-20h-4v-8h-16v8h-4c-11.032,0-20,8.968-20,20
				c0,11.032,8.968,20,20,20h24c2.2,0,4,1.8,4,4s-1.8,4-4,4h-24c-2.2,0-4-1.8-4-4h-16c0,11.032,8.968,20,20,20h4v8h16v-8h4
				c11.032,0,20-8.968,20-20c0-11.032-8.968-20-20-20h-24c-2.2,0-4-1.8-4-4S273.8,384,276,384z"/>
			<path d="M463.448,480c-3.96-31.52-30.872-56-63.448-56s-59.488,24.48-63.448,56h-97.104c-3.96-31.52-30.872-56-63.448-56
				s-59.488,24.48-63.448,56H0v16h496v-16H463.448z M164,480c-2.2,0-4-1.8-4-4s1.8-4,4-4h24c2.2,0,4,1.8,4,4h16
				c0-11.032-8.968-20-20-20h-4v-8h-16v8h-4c-11.032,0-20,8.968-20,20c0,1.368,0.144,2.704,0.408,4h-15.68
				c3.824-22.664,23.536-40,47.28-40s43.448,17.336,47.28,40H164z M388,480c-2.2,0-4-1.8-4-4s1.8-4,4-4h24c2.2,0,4,1.8,4,4h16
				c0-11.032-8.968-20-20-20h-4v-8h-16v8h-4c-11.032,0-20,8.968-20,20c0,1.368,0.144,2.704,0.408,4h-15.68
				c3.824-22.664,23.536-40,47.28-40c23.744,0,43.448,17.336,47.28,40H388z"/>
		</g>
	</g>
</g>
<g>
</g>
<g>
</g>
<g>
</g>
<g>
</g>
<g>
</g>
<g>
</g>
<g>
</g>
<g>
</g>
<g>
</g>
<g>
</g>
<g>
</g>
<g>
</g>
<g>
</g>
<g>
</g>
<g>
</g>
</svg>
