<?xml version="1.0" encoding="iso-8859-1"?>
<!-- Generator: Adobe Illustrator 19.0.0, SVG Export Plug-In . SVG Version: 6.00 Build 0)  -->
<svg version="1.1" id="Layer_1" xmlns="http://www.w3.org/2000/svg" xmlns:xlink="http://www.w3.org/1999/xlink" x="0px" y="0px"
	 viewBox="0 0 512 512" style="enable-background:new 0 0 512 512;" xml:space="preserve">
<g>
	<g>
		<circle cx="279.273" cy="81.455" r="11.636"/>
	</g>
</g>
<g>
	<g>
		<circle cx="232.727" cy="81.455" r="11.636"/>
	</g>
</g>
<g>
	<g>
		<path d="M500.364,325.818H11.636C4.655,325.818,0,330.473,0,337.455V384c0,6.982,4.655,11.636,11.636,11.636h58.182v104.727
			c0,6.982,4.655,11.636,11.636,11.636s11.636-4.655,11.636-11.636V395.636H384c6.982,0,11.636-4.655,11.636-11.636
			s-4.655-11.636-11.636-11.636H23.273v-23.273h465.455v23.273h-58.182c-6.982,0-11.636,4.655-11.636,11.636v116.364
			c0,6.982,4.655,11.636,11.636,11.636s11.636-4.655,11.636-11.636V395.636h58.182c6.982,0,11.636-4.655,11.636-11.636v-46.545
			C512,330.473,507.345,325.818,500.364,325.818z"/>
	</g>
</g>
<g>
	<g>
		<path d="M480.582,224.582l-12.8-25.6c5.818-5.818,9.309-15.127,9.309-24.436c0-19.782-15.127-34.909-34.909-34.909
			c-19.782,0-34.909,15.127-34.909,34.909c0,19.782,15.127,34.909,34.909,34.909c1.164,0,2.327,0,4.655,0l12.8,25.6
			c3.491,8.145,5.818,17.455,5.818,25.6v30.255c0,6.982,4.655,11.636,11.636,11.636s11.636-4.655,11.636-11.636v-30.255
			C488.727,247.855,485.236,235.055,480.582,224.582z M442.182,186.182c-6.982,0-11.636-4.655-11.636-11.636
			s4.655-11.636,11.636-11.636s11.636,4.655,11.636,11.636S449.164,186.182,442.182,186.182z"/>
	</g>
</g>
<g>
	<g>
		<path d="M69.818,139.636c-19.782,0-34.909,15.127-34.909,34.909c0,9.309,3.491,17.455,9.309,24.436l-12.8,25.6
			c-5.818,11.636-8.145,23.273-8.145,36.073v30.255c0,6.982,4.655,11.636,11.636,11.636c6.982,0,11.636-4.655,11.636-11.636v-30.255
			c0-9.309,2.327-17.455,5.818-25.6l12.8-25.6c1.164,0,2.327,0,4.655,0c19.782,0,34.909-15.127,34.909-34.909
			C104.727,154.764,89.6,139.636,69.818,139.636z M69.818,186.182c-6.982,0-11.636-4.655-11.636-11.636s4.655-11.636,11.636-11.636
			s11.636,4.655,11.636,11.636S76.8,186.182,69.818,186.182z"/>
	</g>
</g>
<g>
	<g>
		<path d="M372.364,225.745l-79.127-16.291c-1.164,0-1.164,0-2.327,0h-69.818c-1.164,0-1.164,0-2.327,0l-79.127,16.291
			c-26.764,5.818-46.545,29.091-46.545,57.018v8.146c0,6.982,4.655,11.636,11.636,11.636s11.636-4.655,11.636-11.636v-8.146
			c0-16.291,11.636-31.418,27.927-33.745l77.964-15.127h22.109v58.182c0,6.982,4.655,11.636,11.636,11.636
			s11.636-4.655,11.636-11.636v-58.182h22.109l77.964,15.127c16.291,3.491,27.927,17.455,27.927,33.745v8.146
			c0,6.982,4.655,11.636,11.636,11.636c6.982,0,11.636-4.655,11.636-11.636v-8.146C418.909,254.836,399.127,231.564,372.364,225.745
			z"/>
	</g>
</g>
<g>
	<g>
		<path d="M337.455,61.673v-3.491C337.455,25.6,311.855,0,279.273,0h-46.545c-32.582,0-58.182,25.6-58.182,58.182v3.491
			c-6.982,3.491-11.636,11.636-11.636,19.782v11.636c0,10.473,6.982,18.618,16.291,22.109c0,1.164,0,2.327,1.164,3.491l2.327,10.473
			c3.491,18.618,13.964,33.745,30.255,44.218c11.636,8.145,24.436,11.636,38.4,11.636h11.636c13.964,0,27.927-4.655,38.4-11.636
			c15.127-10.473,26.764-26.764,30.255-44.218l2.327-10.473c0-1.164,0-2.327,1.164-3.491c6.982-3.491,13.964-11.636,13.964-22.109
			V81.455C349.091,73.309,344.436,65.164,337.455,61.673z M325.818,93.091h-3.491c-5.818,0-10.473,4.655-11.636,10.473v4.655
			c0,2.327-1.164,4.655-1.164,6.982l-2.327,10.473c-2.327,12.8-9.309,23.273-19.782,30.255c-8.145,4.655-16.291,6.982-25.6,6.982
			h-11.636c-9.309,0-18.618-2.327-25.6-8.145c-10.473-6.982-17.455-17.455-19.782-30.255l-2.327-10.473
			c0-2.327-1.164-4.655-1.164-6.982V102.4c-1.164-5.818-5.818-10.473-11.636-10.473h-3.491V81.455
			c6.982,0,11.636-4.655,11.636-11.636V58.182c0-19.782,15.127-34.909,34.909-34.909h46.545c19.782,0,34.909,15.127,34.909,34.909
			v10.473v1.164c0,6.982,4.655,11.636,11.636,11.636V93.091z"/>
	</g>
</g>
<g>
	<g>
		<path d="M267.636,116.364h-23.273c-6.982,0-11.636,4.655-11.636,11.636s4.655,11.636,11.636,11.636h23.273
			c6.982,0,11.636-4.655,11.636-11.636S274.618,116.364,267.636,116.364z"/>
	</g>
</g>
<g>
</g>
<g>
</g>
<g>
</g>
<g>
</g>
<g>
</g>
<g>
</g>
<g>
</g>
<g>
</g>
<g>
</g>
<g>
</g>
<g>
</g>
<g>
</g>
<g>
</g>
<g>
</g>
<g>
</g>
</svg>
