<svg xmlns="http://www.w3.org/2000/svg" width="114.5" height="108.9" viewBox="0 0 114.5 108.9"><defs><style>.a,.b{fill:#ff3d00;}.a{fill-rule:evenodd;}</style></defs><path class="a" d="M57.25,0l9.23,28.26a33.42,33.42,0,0,0-18.07-.11ZM85,41.89l29.51-.29-24,17.52A33.09,33.09,0,0,0,85,41.89Zm-1.75,39,9.39,28L68.55,91.46A33.36,33.36,0,0,0,83.24,80.92ZM45.57,91.32,21.87,108.9,31,80.6A33.39,33.39,0,0,0,45.57,91.32ZM24.05,58.71,0,41.6l29.74-.05A33.07,33.07,0,0,0,24.05,58.71Z"/><circle class="b" cx="57.26" cy="60.2" r="33.25"/></svg>