<svg xmlns="http://www.w3.org/2000/svg" width="51.59" height="43.61" viewBox="0 0 51.59 43.61"><path fill-rule="evenodd" class="a" d="M25.8,2.06c11.83,0,21.56,3.45,22.72,7.87-3-3.95-12-6.82-22.72-6.82S6.07,6,3.07,9.93C4.24,5.51,14,2.06,25.8,2.06m0,4,.86,2.8,2.75,0-2.25,1.73L28,13.32l-2.26-1.73-2.21,1.73.86-2.8L22.18,8.84H25ZM11.13,25a2.68,2.68,0,0,0-1.21.7,2.73,2.73,0,0,0,0,3.86,2.68,2.68,0,0,0,1.21.7Zm13.39,1.95L23.45,31h4.69l-1.07-4.09c-.42,0-.84,0-1.27,0S24.94,26.93,24.52,26.91Zm4-.11,1.24,4.74.24.9H21.59l.23-.9,1.24-4.74a19.59,19.59,0,0,1-10.48-4.14V34.25c0,3.75,3.37,6.17,7.69,7.26a23.81,23.81,0,0,0,11.05,0C35.64,40.42,39,38,39,34.25V22.66A19.63,19.63,0,0,1,28.53,26.8Zm10.49-8a41.72,41.72,0,0,0-13.22-2,41.67,41.67,0,0,0-13.22,2v2.62A42.59,42.59,0,0,1,25.8,19.54,42.63,42.63,0,0,1,39,21.46Zm1.44,11.38a2.63,2.63,0,0,0,1.21-.7,2.73,2.73,0,0,0,0-3.86,2.63,2.63,0,0,0-1.21-.7Zm0-6.74a4.08,4.08,0,0,1,2.23,1.16,4.18,4.18,0,0,1,0,5.9,4.08,4.08,0,0,1-2.23,1.16v2.55c0,4.54-3.85,7.42-8.79,8.66a25,25,0,0,1-11.75,0c-4.93-1.24-8.79-4.12-8.79-8.66V31.7a4.17,4.17,0,0,1,0-8.22V19.16C4.41,17.26,0,14.09,0,10.51,0,4.71,11.55,0,25.8,0S51.59,4.71,51.59,10.51c0,3.58-4.4,6.75-11.13,8.65ZM20,37.15a3.09,3.09,0,0,1,.35-1.53,2,2,0,0,1,1.85-1h7.15a2,2,0,0,1,1.86,1,3.2,3.2,0,0,1,.35,1.53H30.13a1.73,1.73,0,0,0-.16-.81.61.61,0,0,0-.6-.28H22.22a.62.62,0,0,0-.6.28,1.73,1.73,0,0,0-.16.81Z"/></svg>