<svg xmlns="http://www.w3.org/2000/svg" width="114.5" height="108.9" viewBox="0 0 114.5 108.9"><defs><style>.a{fill:#ff3d00;fill-rule:evenodd;}.b{fill:#fff;}</style></defs><path class="a" d="M57.25,27A33.24,33.24,0,1,1,24,60.2,33.24,33.24,0,0,1,57.25,27"/><polygon class="a" points="57.25 0 70.98 42.03 114.5 41.6 78.78 67.64 92.64 108.9 56.83 82.97 21.87 108.9 35.46 66.83 0 41.6 44.21 41.53 57.25 0"/><path class="b" d="M52,45.81a7.5,7.5,0,0,1,12.79,5.31v3.74a10,10,0,0,1-1,4.2A24,24,0,0,1,62,61.91a12.82,12.82,0,0,0-1.62,3A16.32,16.32,0,0,0,60,66.64c-.1.61-.17,1.1-.2,1.47v3h-5V67.36a10,10,0,0,1,1.05-4.2,22.46,22.46,0,0,1,1.72-2.85,13.82,13.82,0,0,0,1.65-2.94,16,16,0,0,0,.39-1.78c.1-.62.16-1.12.2-1.49v-3A2.45,2.45,0,0,0,59,49.34a2.38,2.38,0,0,0-1.77-.73,2.49,2.49,0,0,0-2.51,2.51v2.49h-5V51.12A7.23,7.23,0,0,1,52,45.81Zm2.78,27.8h5v5h-5Z"/></svg>