<svg xmlns="http://www.w3.org/2000/svg" width="51.59" height="44.47" viewBox="0 0 51.59 44.47"><defs><style>.a{fill:#fefefe;fill-rule:evenodd;}</style></defs><path class="a" d="M20,38a3.07,3.07,0,0,1,.35-1.53,2,2,0,0,1,1.85-1h7.15a2,2,0,0,1,1.86,1A3.18,3.18,0,0,1,31.58,38H30.13a1.7,1.7,0,0,0-.16-.81.61.61,0,0,0-.6-.28H22.22a.62.62,0,0,0-.6.28,1.7,1.7,0,0,0-.16.81Zm4.17-9.23c.53,0,1.07.05,1.61.05s1.07,0,1.6-.05l.74,3.08H23.45Zm16.29-4.44a4.17,4.17,0,0,1,0,8.22v2.55c0,4.54-3.85,7.42-8.79,8.66a25.36,25.36,0,0,1-11.75,0c-4.93-1.24-8.79-4.12-8.79-8.66V32.57A4.18,4.18,0,0,1,8.9,25.5a4.15,4.15,0,0,1,2.21-1.15,24.62,24.62,0,0,0,11.76,4.33l-1.1,4.49h8.06l-1.11-4.49A24.62,24.62,0,0,0,40.48,24.35ZM25.8,0C40,0,51.59,5.82,51.59,10.51S47.4,17.16,41,19A47,47,0,0,0,25.8,16.7,47.09,47.09,0,0,0,10.63,19C4.19,17.15,0,15.09,0,10.51S11.55,0,25.8,0Zm0,6.93.86,2.8,2.75,0-2.25,1.74L28,14.19l-2.26-1.73-2.21,1.73.86-2.81L22.18,9.7H25ZM40.46,20.29a50.91,50.91,0,0,0-14.66-2,51,51,0,0,0-14.67,2v2.62A51.74,51.74,0,0,1,25.8,21a51.66,51.66,0,0,1,14.66,1.92ZM25.8,2.27A48.74,48.74,0,0,1,41.22,4.55c4.2,1.46,7,3.52,7.65,5.87a.36.36,0,0,1-.26.44.37.37,0,0,1-.39-.15c-1.47-1.93-4.47-3.61-8.43-4.79a49.41,49.41,0,0,0-14-1.87,49.53,49.53,0,0,0-14,1.87c-4,1.19-7,2.87-8.44,4.81a.37.37,0,0,1-.51.07.38.38,0,0,1-.13-.38h0C3.34,8.07,6.17,6,10.38,4.55A48.7,48.7,0,0,1,25.8,2.27Z"/></svg>