<svg xmlns="http://www.w3.org/2000/svg" width="224.57" height="277.97" viewBox="0 0 224.57 277.97"><defs><style>.a,.b{fill:#2b2a29;}.b,.c{fill-rule:evenodd;}.c{fill:#fefefe;}.d{fill:none;stroke:#2b2a29;stroke-miterlimit:22.93;stroke-width:2.83px;}</style></defs><path class="a" d="M185.3,279.83h8a4,4,0,0,1,4,4v8.48a1.43,1.43,0,0,1-.44,1,1.4,1.4,0,0,1-1.05.44v0a1.5,1.5,0,0,1,1.49,1.49v8.51a4,4,0,0,1-4,4h-8Zm4,4v8h2.52a1.47,1.47,0,0,0,1.08-.44,1.43,1.43,0,0,0,.44-1.08v-5a1.5,1.5,0,0,0-1.52-1.53Zm0,12v8h2.52a1.5,1.5,0,0,0,1.52-1.52v-5a1.43,1.43,0,0,0-.44-1.08,1.5,1.5,0,0,0-1.08-.43Z" transform="translate(-100.31 -73.61)"/><path class="a" d="M201.08,307.8v-28h12v4h-8v8h6v4h-6v8h8v4Z" transform="translate(-100.31 -73.61)"/><path class="a" d="M218.91,299.79v2a1.89,1.89,0,0,0,.59,1.42,2,2,0,0,0,3.41-1.42v-4a1.94,1.94,0,0,0-.57-1.42,2,2,0,0,0-1.42-.58,6,6,0,0,1-6-6v-4a6,6,0,0,1,12,0v2h-4v-2a2,2,0,0,0-.57-1.42,2,2,0,0,0-2.84,0,1.89,1.89,0,0,0-.59,1.42v4a2,2,0,0,0,2,2,5.74,5.74,0,0,1,4.47,2,5.85,5.85,0,0,1,1.53,4v4a6,6,0,0,1-12,0v-2Z" transform="translate(-100.31 -73.61)"/><path class="a" d="M227.91,279.79h12v4h-4v24h-4v-24h-4Z" transform="translate(-100.31 -73.61)"/><path class="a" d="M149.62,316.58h10a5,5,0,0,1,5,5v25.05a5,5,0,0,1-5,5h-10Zm5,4.95v25.1h3.15a1.8,1.8,0,0,0,1.35-.55,1.83,1.83,0,0,0,.55-1.35V323.44a1.84,1.84,0,0,0-.55-1.36,1.8,1.8,0,0,0-1.35-.55Z" transform="translate(-100.31 -73.61)"/><path class="a" d="M174.5,351.59h-5v-35h5Z" transform="translate(-100.31 -73.61)"/><path class="a" d="M181.34,318.78a7.47,7.47,0,0,1,10.59,0,7.27,7.27,0,0,1,2.2,5.32v2.49h-5V324.1a2.49,2.49,0,0,0-2.51-2.52,2.38,2.38,0,0,0-1.77.73,2.47,2.47,0,0,0-.72,1.79v20a2.46,2.46,0,0,0,2.49,2.49,2.44,2.44,0,0,0,1.78-.72,2.38,2.38,0,0,0,.73-1.77v-2.51h5v2.51a7.5,7.5,0,0,1-15,0v-20A7.27,7.27,0,0,1,181.34,318.78Z" transform="translate(-100.31 -73.61)"/><path class="a" d="M195.47,316.58h15v5h-5v30h-5v-30h-5Z" transform="translate(-100.31 -73.61)"/><path class="a" d="M215.15,316.58h5l7.49,35h-5l-1.48-7.5-7.06,0-1.49,7.55h-5Zm2.47,10-2.52,12.54h5.05l-2.49-12.54Z" transform="translate(-100.31 -73.61)"/><path class="a" d="M224.79,316.58h15v5h-5v30h-5v-30h-5Z" transform="translate(-100.31 -73.61)"/><path class="a" d="M243.32,318.78a7.48,7.48,0,0,1,10.6,0,7.3,7.3,0,0,1,2.19,5.32v20a7.5,7.5,0,0,1-15,0v-20A7.31,7.31,0,0,1,243.32,318.78Zm7.08,3.53a2.41,2.41,0,0,0-1.78-.73,2.38,2.38,0,0,0-1.77.73,2.47,2.47,0,0,0-.72,1.79v20a2.46,2.46,0,0,0,2.49,2.49,2.44,2.44,0,0,0,1.78-.72,2.38,2.38,0,0,0,.73-1.77v-20A2.44,2.44,0,0,0,250.4,322.31Z" transform="translate(-100.31 -73.61)"/><path class="a" d="M260.61,316.62l10,.05a5,5,0,0,1,4.95,5v10a4.68,4.68,0,0,1-2.46,4.3l2.46,15.65h-4.95l-2.5-15h-2.56v15h-4.95Zm4.95,5v10.11h3.15a1.79,1.79,0,0,0,1.36-.58,1.88,1.88,0,0,0,.55-1.33v-6.25a2,2,0,0,0-.55-1.38,1.82,1.82,0,0,0-1.36-.57Z" transform="translate(-100.31 -73.61)"/><polygon class="b" points="112.28 0 139.21 82.42 224.57 81.58 154.5 132.66 181.68 213.58 111.45 162.72 42.89 213.58 69.55 131.07 0 81.58 86.71 81.44 112.28 0"/><polygon class="b" points="155.2 211.71 157.18 217.76 163.44 217.69 158.3 221.44 160.29 227.37 155.14 223.64 150.11 227.37 152.07 221.32 146.97 217.69 153.33 217.68 155.2 211.71"/><polygon class="b" points="66.84 211.71 68.81 217.76 75.07 217.69 69.93 221.44 71.93 227.37 66.78 223.64 61.75 227.37 63.7 221.32 58.6 217.69 64.96 217.68 66.84 211.71"/><path class="c" d="M212.6,126.49a65.19,65.19,0,1,1-65.18,65.19,65.19,65.19,0,0,1,65.18-65.19" transform="translate(-100.31 -73.61)"/><polygon class="c" points="109.69 124.36 114.88 124.36 118.71 139 105.86 139 109.69 124.36"/><polygon class="d" points="109.69 124.36 114.88 124.36 118.71 139 105.86 139 109.69 124.36"/><path class="b" d="M212.6,150.4c27.94,0,50.59,9.23,50.59,20.61,0,7.15-8.93,13.45-22.49,17.15-7.4-2.91-17.26-4.69-28.1-4.69s-20.71,1.78-28.1,4.69c-13.56-3.7-22.5-10-22.5-17.15,0-11.38,22.66-20.61,50.6-20.61" transform="translate(-100.31 -73.61)"/><path class="b" d="M212.6,188.73c10.82,0,20.62,1.69,27.75,4.42-5.89,6.08-16.12,10.1-27.75,10.1s-21.86-4-27.75-10.1c7.13-2.73,16.93-4.42,27.75-4.42" transform="translate(-100.31 -73.61)"/><path class="d" d="M239.94,178.37v39.21c0,22.58-54.69,22.58-54.69,0V178.37" transform="translate(-100.31 -73.61)"/><path class="d" d="M185.25,197.74a6.78,6.78,0,0,0,0,13.55" transform="translate(-100.31 -73.61)"/><path class="d" d="M239.94,197.74a6.78,6.78,0,1,1,0,13.55" transform="translate(-100.31 -73.61)"/><path class="d" d="M202.68,223.27c0-1.39.36-3.56,2.9-3.56h14c2.54,0,2.91,2.17,2.91,3.56" transform="translate(-100.31 -73.61)"/><polygon class="c" points="112.28 88.68 113.98 94.18 119.37 94.12 114.95 97.52 116.67 102.92 112.23 99.53 107.91 102.92 109.59 97.42 105.2 94.12 110.67 94.11 112.28 88.68"/><path class="c" d="M212.6,154.44c23.2,0,42.28,6.77,44.57,15.44-5.88-7.75-23.61-13.38-44.57-13.38s-38.69,5.63-44.57,13.38c2.28-8.67,21.37-15.44,44.57-15.44" transform="translate(-100.31 -73.61)"/></svg>